<?xml version="1.0" encoding="utf-8"?>
<!-- Generator: Adobe Illustrator 27.5.0, SVG Export Plug-In . SVG Version: 6.00 Build 0)  -->
<svg version="1.1" id="Layer_1" xmlns="http://www.w3.org/2000/svg" xmlns:xlink="http://www.w3.org/1999/xlink" x="0px" y="0px"
	 viewBox="0 0 87.919 188.781" style="enable-background:new 0 0 87.919 188.781;" xml:space="preserve">
<g>
	<g>
		<path d="M86.601,6.778c0-3.986-3.901-3.946-3.901-3.946H46.087H24.444H5.22c0,0-3.901-0.04-3.901,3.946v13.506l0,0v161.722
			c0,3.983,3.901,3.944,3.901,3.944h36.612h21.643H82.7c0,0,3.901,0.039,3.901-3.944V37.733l0,0V6.778z"/>
		<linearGradient id="SVGID_1_" gradientUnits="userSpaceOnUse" x1="2.0332" y1="94.0567" x2="85.8862" y2="94.0567">
			<stop  offset="0" style="stop-color:#333333"/>
			<stop  offset="0.2859" style="stop-color:#292929"/>
			<stop  offset="0.7654" style="stop-color:#0F0F0F"/>
			<stop  offset="1" style="stop-color:#000000"/>
		</linearGradient>
		<path style="fill:url(#SVGID_1_);" d="M85.886,7.489c0-3.937-3.835-3.899-3.835-3.899h-36H24.771H5.87
			c0,0-3.836-0.038-3.836,3.899v13.345l0,0v159.79c0,3.938,3.836,3.899,3.836,3.899h35.998h21.279h18.904
			c0,0,3.834,0.038,3.834-3.899V38.076h0.001V7.489z"/>
		
			<linearGradient id="SVGID_00000005968666538202917080000014806289603065642933_" gradientUnits="userSpaceOnUse" x1="2.0332" y1="94.0567" x2="85.8862" y2="94.0567">
			<stop  offset="0" style="stop-color:#333333"/>
			<stop  offset="0.2859" style="stop-color:#292929"/>
			<stop  offset="0.7654" style="stop-color:#0F0F0F"/>
			<stop  offset="1" style="stop-color:#000000"/>
		</linearGradient>
		<path style="fill:url(#SVGID_00000005968666538202917080000014806289603065642933_);" d="M85.886,7.489
			c0-3.937-3.835-3.899-3.835-3.899h-36H24.771H5.87c0,0-3.836-0.038-3.836,3.899v13.345l0,0v159.79
			c0,3.938,3.836,3.899,3.836,3.899h35.998h21.279h18.904c0,0,3.834,0.038,3.834-3.899V38.076h0.001V7.489z"/>
		<path style="fill:#292929;" d="M49.935,6.354c0,0.328-0.265,0.594-0.592,0.594H38.577c-0.326,0-0.593-0.266-0.593-0.594l0,0
			c0-0.325,0.267-0.593,0.593-0.593h10.766C49.669,5.761,49.935,6.028,49.935,6.354L49.935,6.354z"/>
		<g>
			
				<linearGradient id="SVGID_00000136394559279498464540000009032308913875772838_" gradientUnits="userSpaceOnUse" x1="42.0134" y1="183.1644" x2="42.0134" y2="150.1996">
				<stop  offset="0" style="stop-color:#333333"/>
				<stop  offset="0.2859" style="stop-color:#292929"/>
				<stop  offset="0.7654" style="stop-color:#0F0F0F"/>
				<stop  offset="1" style="stop-color:#000000"/>
			</linearGradient>
			<path style="fill:url(#SVGID_00000136394559279498464540000009032308913875772838_);" d="M48.474,176.496
				c0,3.569-2.893,6.459-6.46,6.459c-3.567,0-6.46-2.89-6.46-6.459c0-3.569,2.893-6.46,6.46-6.46
				C45.581,170.036,48.474,172.927,48.474,176.496z"/>
			
				<linearGradient id="SVGID_00000139285213426883800770000016034354408843135407_" gradientUnits="userSpaceOnUse" x1="40.5978" y1="170.6924" x2="43.3166" y2="181.8366">
				<stop  offset="0" style="stop-color:#333333"/>
				<stop  offset="0.2859" style="stop-color:#292929"/>
				<stop  offset="0.7654" style="stop-color:#0F0F0F"/>
				<stop  offset="1" style="stop-color:#000000"/>
			</linearGradient>
			<path style="fill:url(#SVGID_00000139285213426883800770000016034354408843135407_);" d="M47.934,176.496
				c0,3.269-2.65,5.919-5.92,5.919c-3.271,0-5.92-2.65-5.92-5.919c0-3.27,2.649-5.92,5.92-5.92
				C45.284,170.576,47.934,173.227,47.934,176.496z"/>
		</g>
		<g>
			
				<linearGradient id="SVGID_00000047046517818835291620000003166623838358155437_" gradientUnits="userSpaceOnUse" x1="43.9592" y1="188.9427" x2="43.9592" y2="-58.7446">
				<stop  offset="7.772600e-04" style="stop-color:#676767"/>
				<stop  offset="0.169" style="stop-color:#5D5D5D"/>
				<stop  offset="0.452" style="stop-color:#434343"/>
				<stop  offset="0.813" style="stop-color:#191919"/>
				<stop  offset="1" style="stop-color:#000000"/>
			</linearGradient>
			<polygon style="fill:url(#SVGID_00000047046517818835291620000003166623838358155437_);" points="2.033,172.848 85.885,115.236 
				85.885,79.521 2.033,137.134 			"/>
			
				<linearGradient id="SVGID_00000128465582850975689370000004979388260340401573_" gradientUnits="userSpaceOnUse" x1="43.9506" y1="188.9431" x2="43.9506" y2="-58.7461">
				<stop  offset="7.772600e-04" style="stop-color:#676767"/>
				<stop  offset="0.169" style="stop-color:#5D5D5D"/>
				<stop  offset="0.452" style="stop-color:#434343"/>
				<stop  offset="0.813" style="stop-color:#191919"/>
				<stop  offset="1" style="stop-color:#000000"/>
			</linearGradient>
			<path style="fill:url(#SVGID_00000128465582850975689370000004979388260340401573_);" d="M82.051,3.59h-6.103L2.033,54.375
				v10.429L85.868,7.205C85.682,3.566,82.051,3.59,82.051,3.59z"/>
		</g>
		<rect x="3.766" y="8.838" style="fill:#FFFFFF;" width="80.387" height="158.992"/>
	</g>
	<path style="fill:#FFFFFF;" d="M76.308,3.59l-34.92,0.08L23.927,3.711L6.466,3.67H6.461C5.238,3.619,3.912,3.965,3.064,4.884
		C2.192,5.811,2.051,7.148,2.1,8.392l-0.004,7.581L2.086,31.135L2.069,61.459l-0.036,60.649L1.997,61.459L1.979,31.135L1.97,15.973
		L1.965,8.392C1.916,7.154,2.046,5.755,2.956,4.784c0.89-0.966,2.247-1.322,3.518-1.274H6.466l17.461-0.041L41.388,3.51L76.308,3.59
		z"/>
</g>
</svg>
